<svg width="64" height="120" viewBox="0 0 64 120" fill="none" xmlns="http://www.w3.org/2000/svg">
<g id="Frame 33011" clip-path="url(#clip0_2930_55)">
<g id="Group 1597">
<path id="Vector" fill-rule="evenodd" clip-rule="evenodd" d="M19.5544 17.8006L19.2934 5.67841L61.3108 27.4488C61.3108 27.4488 62.5695 28.6202 62.6157 29.6754C63.0356 39.2665 63.9206 87.3175 63.9206 87.3175C63.9206 87.3175 62.7673 89.2613 61.0498 90.2862C59.2462 91.3629 56.8742 90.781 56.8742 90.781L23.4691 73.711L23.4691 90.7797L12.247 97.4606L11.4641 63.8154C11.524 62.9451 11.7917 62.0992 12.247 61.3414C12.9517 60.2482 14.3349 59.3623 14.3349 59.3623L44.0863 42.5397L44.6082 55.1567L30.2545 64.0628L50.8717 75.1954L51.3937 75.4427C51.5942 75.4254 51.7806 75.337 51.9156 75.1954C52.0601 74.9696 52.1493 74.716 52.1766 74.4532L51.1327 34.8706L19.5544 17.8006Z" fill="#FEFBEC"/>
<path id="Vector_2" fill-rule="evenodd" clip-rule="evenodd" d="M42.1504 89.1596L53.2143 95.0261L12.5178 118.405C12.5178 118.405 10.869 118.907 9.92588 118.421C1.35255 114.003 -43.5154 90.731 -43.5154 90.731C-43.5154 90.731 -44.7418 89.0556 -44.7798 87.0644C-44.82 84.9733 -43.3046 83.3979 -43.3046 83.3979L-10.9561 64.4368L-26.454 55.3715L-26.8669 43.4853L3.69036 59.199C4.4194 59.6842 5.89068 60.9431 6.32461 61.7132C6.74609 62.656 6.74609 64.4369 6.74609 64.4369L7.41015 97.1212L-3.90477 91.3033L-4.63386 74.9611L-25.6025 86.0169L-26.4454 86.6454C-26.5302 86.827 -26.5017 86.9822 -26.4454 87.1692C-26.3205 87.4062 -25.818 87.5385 -25.6025 87.693L10.8555 106.654L42.1504 89.1596Z" fill="#FEFBEC"/>
<path id="Vector_3" fill-rule="evenodd" clip-rule="evenodd" d="M-34.4086 71.6451L-45.349 77.9182L-46.4744 32.5442C-46.4744 32.5442 -46.0338 30.9253 -45.0933 30.36C-36.5439 25.2214 6.89704 0.478583 6.89704 0.478583C6.89704 0.478583 9.2487 0.453844 11.0434 1.35138C12.9285 2.29394 13.583 4.53184 13.583 4.53184L14.695 40.4855L30.154 31.7392L41.9953 37.827L11.6599 55.2869C10.8351 55.6725 9.92874 55.8755 9.00912 55.8806C7.65805 55.8484 6.15769 55.156 6.15769 55.156L-24.081 39.1416L-12.8193 32.4069L2.49096 39.7383L2.34977 17.2505L2.3148 16.6985C2.1986 16.5425 2.02477 16.4337 1.82782 16.3935C1.54916 16.3877 1.27269 16.4413 1.01879 16.5504L-34.6075 37.1905L-34.4086 71.6451Z" fill="#FEFBEC"/>
<path id="Vector_4" fill-rule="evenodd" clip-rule="evenodd" d="M-13.3225 31.9159L-24.8118 38.8028L5.11374 54.8704C5.11374 54.8704 7.1945 56.2063 9.12156 56.1457C11.1969 56.0796 13.1294 54.6153 13.1294 54.6153L42.5204 37.5268L30.7639 31.4058L14.7326 40.0774C14.7326 40.0774 11.2235 41.5456 8.05286 41.3524C4.94514 41.1632 2.1746 39.3122 2.1746 39.3122L-13.3225 31.9159Z" fill="#27A5EF"/>
<path id="Vector_5" fill-rule="evenodd" clip-rule="evenodd" d="M45.1293 54.9181L44.5844 42.0431L15.036 58.5763C15.036 58.5763 12.7816 59.6153 11.8768 61.2288C10.9026 62.9655 11.2729 65.284 11.2729 65.284L12.1856 97.9558L23.6203 91.365L23.7135 73.8685C23.7135 73.8685 24.1253 70.2534 25.8817 67.7471C27.6041 65.2905 30.6698 63.9417 30.6698 63.9417L45.1293 54.9181Z" fill="#27A5EF"/>
<path id="Vector_6" fill-rule="evenodd" clip-rule="evenodd" d="M-4.25463 91.702L7.81113 97.7049L7.48047 65.1106C7.48047 65.1106 7.6582 62.7357 6.63438 61.1826C5.53227 59.5109 3.22289 58.6537 3.22289 58.6537L-27.1611 43.0334L-26.8563 55.7429L-10.8762 64.5871C-10.8762 64.5871 -7.77052 66.7372 -6.35629 69.4377C-4.96919 72.0848 -5.27088 75.2838 -5.27088 75.2838L-4.25463 91.702Z" fill="#27A5EF"/>
</g>
</g>
<defs>
<clipPath id="clip0_2930_55">
<rect width="115.453" height="119.338" fill="white" transform="translate(-51.532 0.478516)"/>
</clipPath>
</defs>
</svg>
