<svg width="1440" height="271" viewBox="0 0 1440 271" fill="none" xmlns="http://www.w3.org/2000/svg">
<g clip-path="url(#clip0_1768_1254)">
<rect width="1562" height="271" transform="translate(-78)" fill="white"/>
<rect width="1562" height="271" transform="translate(-78)" fill="black"/>
<g clip-path="url(#clip1_1768_1254)">
<path fill-rule="evenodd" clip-rule="evenodd" d="M50.0693 59.2075L49.5991 37.3682L125.298 76.5898C125.298 76.5898 127.565 78.7002 127.648 80.6011C128.405 97.8805 129.999 184.449 129.999 184.449C129.999 184.449 127.922 187.951 124.827 189.798C121.578 191.737 117.305 190.689 117.305 190.689L57.1219 159.936L57.1219 190.687L36.9043 202.723L35.4938 142.108C35.6017 140.54 36.084 139.016 36.9043 137.651C38.1738 135.681 40.6657 134.085 40.6657 134.085L94.2659 103.778L95.2063 126.508L69.3465 142.553L106.491 162.61L107.431 163.056C107.792 163.024 108.128 162.865 108.371 162.61C108.632 162.203 108.792 161.746 108.841 161.273L106.961 89.9608L50.0693 59.2075Z" fill="#FEFBEC"/>
<path fill-rule="evenodd" clip-rule="evenodd" d="M90.7784 187.768L110.711 198.337L37.3922 240.457C37.3922 240.457 34.4218 241.36 32.7226 240.485C17.2769 232.526 -63.5572 190.599 -63.5572 190.599C-63.5572 190.599 -65.7668 187.581 -65.8352 183.993C-65.9075 180.226 -63.1775 177.388 -63.1775 177.388L-4.89828 143.227L-32.8193 126.895L-33.5633 105.481L21.4887 133.791C22.8021 134.665 25.4528 136.933 26.2346 138.32C26.9939 140.019 26.9939 143.227 26.9939 143.227L28.1903 202.112L7.80532 191.63L6.4918 162.188L-31.2853 182.106L-32.804 183.238C-32.9568 183.565 -32.9054 183.845 -32.804 184.182C-32.579 184.609 -31.6736 184.847 -31.2853 185.126L34.3975 219.286L90.7784 187.768Z" fill="#FEFBEC"/>
<path fill-rule="evenodd" clip-rule="evenodd" d="M-47.1504 156.214L-66.8607 167.515L-68.8881 85.7696C-68.8881 85.7696 -68.0944 82.8529 -66.3999 81.8345C-50.9974 72.5768 27.2659 28.0001 27.2659 28.0001C27.2659 28.0001 31.5027 27.9556 34.7361 29.5726C38.1322 31.2707 39.3114 35.3025 39.3114 35.3025L41.3148 100.077L69.1657 84.3193L90.4991 95.287L35.8466 126.743C34.3608 127.438 32.7278 127.803 31.0711 127.812C28.637 127.755 25.9339 126.507 25.9339 126.507L-28.5441 97.6555L-8.255 85.5222L19.3279 98.7305L19.0736 58.2164L19.0106 57.222C18.8012 56.941 18.488 56.7448 18.1332 56.6725C17.6312 56.6621 17.1331 56.7586 16.6757 56.955L-47.5087 94.1403L-47.1504 156.214Z" fill="#FEFBEC"/>
<path fill-rule="evenodd" clip-rule="evenodd" d="M-9.16163 84.6378L-29.8607 97.0452L24.0531 125.993C24.0531 125.993 27.8018 128.399 31.2736 128.29C35.0125 128.171 38.4941 125.533 38.4941 125.533L91.445 94.7463L70.2645 83.7188L41.3824 99.3414C41.3824 99.3414 35.0604 101.987 29.3482 101.639C23.7494 101.298 18.758 97.9629 18.758 97.9629L-9.16163 84.6378Z" fill="#27A5EF"/>
<path fill-rule="evenodd" clip-rule="evenodd" d="M96.1451 126.078L95.1634 102.883L41.929 132.669C41.929 132.669 37.8676 134.541 36.2375 137.448C34.4823 140.577 35.1495 144.754 35.1495 144.754L36.7937 203.615L57.3945 191.741L57.5624 160.22C57.5624 160.22 58.3043 153.706 61.4686 149.191C64.5718 144.765 70.0949 142.335 70.0949 142.335L96.1451 126.078Z" fill="#27A5EF"/>
<path fill-rule="evenodd" clip-rule="evenodd" d="M7.17524 192.348L28.9129 203.163L28.3172 144.441C28.3172 144.441 28.6374 140.163 26.7929 137.364C24.8073 134.353 20.6467 132.809 20.6467 132.809L-34.0931 104.667L-33.544 127.564L-4.7541 143.498C-4.7541 143.498 0.841007 147.372 3.3889 152.237C5.88789 157.006 5.34437 162.769 5.34437 162.769L7.17524 192.348Z" fill="#27A5EF"/>
</g>
<path d="M250.96 175.118V115.278C250.96 107.278 250.96 91.5984 240.56 91.5984C229.52 91.5984 214.32 102.638 208.56 111.438C207.76 112.558 205.84 115.918 204.24 115.918C200.72 115.918 203.12 112.078 203.6 111.118L216.08 82.6384C217.68 77.1984 219.6 78.1584 221.2 81.0384C225.04 87.9184 241.04 87.4384 247.28 87.4384H278.16C284.4 87.4384 300.4 87.9184 304.24 81.0384C305.84 78.1584 307.76 77.1984 309.36 82.6384L321.84 111.118C322.32 112.078 324.72 115.918 321.2 115.918C319.6 115.918 317.68 112.558 316.88 111.438C311.12 102.638 295.92 91.5984 284.88 91.5984C274.48 91.5984 274.48 107.278 274.48 115.278V175.118C274.48 189.198 275.12 197.678 290.64 197.678C294 197.678 296.08 197.678 296.08 199.918C296.08 201.838 293.36 201.838 292.08 201.838H233.36C232.08 201.838 229.36 201.838 229.36 199.918C229.36 197.678 231.44 197.678 234.8 197.678C250.32 197.678 250.96 189.198 250.96 175.118ZM344.909 175.118V114.158C344.909 100.078 344.269 91.5984 328.749 91.5984C325.389 91.5984 323.309 91.5984 323.309 89.3584C323.309 87.4384 326.029 87.4384 327.309 87.4384H393.709C408.909 87.4384 410.669 83.9184 413.229 79.9184C413.389 79.4384 415.309 76.5584 417.069 81.8384L429.389 112.558C431.949 118.958 428.589 120.078 425.389 113.518C420.749 103.758 403.469 91.5984 384.109 91.5984C369.709 91.5984 368.429 99.2784 368.429 111.278V138.318H385.549C401.709 138.318 404.429 126.638 404.429 121.198V116.558C404.429 114.478 408.589 111.278 408.589 118.478V163.438C408.589 170.638 404.429 167.438 404.429 165.358V159.438C404.429 153.998 401.709 142.478 385.549 142.478H368.429V175.118C368.429 190.958 372.589 197.678 389.389 197.678C407.469 197.678 422.829 186.318 431.309 170.798C433.869 163.918 437.069 165.358 437.069 167.278L418.669 209.998C416.269 215.438 414.829 214.958 414.189 211.758C412.749 204.878 409.709 201.838 386.029 201.838H327.309C326.029 201.838 323.309 201.838 323.309 199.918C323.309 197.678 325.389 197.678 328.749 197.678C344.269 197.678 344.909 189.198 344.909 175.118ZM546.335 83.7584L557.695 116.718C557.855 117.518 560.415 122.158 556.895 122.158C555.455 122.158 554.495 120.398 554.175 119.438C540.735 94.7984 524.415 88.7184 513.375 88.7184C481.055 88.7184 479.135 134.958 479.135 146.318C479.135 171.598 485.375 200.558 516.735 200.558C532.095 200.558 549.695 191.598 554.495 176.398C558.335 167.278 561.215 172.878 561.215 173.838C561.215 174.958 553.375 204.718 515.935 204.718C464.415 204.718 452.735 163.118 452.735 144.878C452.735 111.118 476.415 84.5584 510.975 84.5584C517.695 84.5584 524.735 85.6784 531.135 87.5984C532.415 87.9184 534.815 88.3984 535.935 88.3984C543.135 88.3984 540.895 79.9184 543.775 79.9184C545.375 79.9184 546.015 82.7984 546.335 83.7584ZM670.417 141.998H621.617V175.118C621.617 189.198 622.257 197.678 637.777 197.678C641.137 197.678 643.217 197.678 643.217 199.918C643.217 201.838 640.497 201.838 639.217 201.838H579.217C577.937 201.838 575.217 201.838 575.217 199.918C575.217 197.678 577.297 197.678 580.657 197.678C597.457 197.678 598.097 189.198 598.097 175.118V114.158C598.097 100.078 597.457 91.5984 580.657 91.5984C577.297 91.5984 575.217 91.5984 575.217 89.3584C575.217 87.4384 577.937 87.4384 579.217 87.4384H639.217C640.497 87.4384 643.217 87.4384 643.217 89.3584C643.217 91.5984 641.137 91.5984 637.777 91.5984C622.257 91.5984 621.617 100.078 621.617 114.158V137.838H670.417V114.158C670.417 100.078 669.777 91.5984 654.257 91.5984C650.897 91.5984 648.817 91.5984 648.817 89.3584C648.817 87.4384 651.537 87.4384 652.817 87.4384H712.817C714.097 87.4384 716.817 87.4384 716.817 89.3584C716.817 91.5984 714.737 91.5984 711.377 91.5984C694.577 91.5984 693.937 100.078 693.937 114.158V175.118C693.937 189.198 694.577 197.678 711.377 197.678C714.737 197.678 716.817 197.678 716.817 199.918C716.817 201.838 714.097 201.838 712.817 201.838H652.977C651.697 201.838 648.977 201.998 648.977 199.918C648.977 197.358 652.017 197.838 653.777 197.838C669.777 197.838 670.417 189.038 670.417 175.118V141.998ZM750.841 98.6384V161.838C750.841 188.078 753.401 197.678 765.721 197.678C767.321 197.678 771.481 197.678 771.481 199.918C771.481 201.678 769.881 201.838 768.601 201.838H728.441C727.161 201.838 725.241 201.838 725.241 200.078C725.241 197.678 729.241 197.678 730.841 197.678C737.401 197.678 746.681 191.758 746.681 161.838V114.158C746.681 101.038 745.881 91.5984 730.521 91.5984C728.441 91.5984 725.401 92.0784 725.401 89.3584C725.401 87.2784 728.441 87.4384 729.881 87.4384H772.921C775.481 87.4384 775.481 88.5584 775.481 91.2784C775.481 94.4784 785.881 111.918 787.481 114.478L823.481 176.878H823.801V126.318C823.801 101.358 819.961 91.5984 806.041 91.5984C804.441 91.5984 801.881 91.7584 801.881 89.6784C801.881 87.4384 804.121 87.4384 805.721 87.4384H846.041C847.321 87.4384 849.081 87.4384 849.081 89.3584C849.081 91.5984 847.161 91.5984 845.881 91.5984C834.841 91.5984 827.961 96.5584 827.961 126.318V180.398C831.161 183.598 832.601 185.998 837.241 186.318C840.761 186.958 840.441 188.558 837.241 189.198C830.841 190.798 820.761 197.998 816.761 202.958C814.201 205.518 813.721 206.958 810.841 201.358C810.201 198.958 806.521 193.198 804.921 190.638L751.161 98.6384H750.841ZM882.465 175.118V114.158C882.465 100.078 881.825 91.5984 866.305 91.5984C862.945 91.5984 860.865 91.5984 860.865 89.3584C860.865 87.4384 863.585 87.4384 864.865 87.4384H923.585C924.865 87.4384 927.585 87.4384 927.585 89.3584C927.585 91.5984 925.505 91.5984 922.145 91.5984C906.625 91.5984 905.985 100.078 905.985 114.158V175.118C905.985 189.198 906.625 197.678 922.145 197.678C925.505 197.678 927.585 197.678 927.585 199.918C927.585 201.838 924.865 201.838 923.585 201.838H864.865C863.585 201.838 860.865 201.838 860.865 199.918C860.865 197.678 862.945 197.678 866.305 197.678C881.825 197.678 882.465 189.198 882.465 175.118ZM1037.08 83.7584L1048.44 116.718C1048.6 117.518 1051.16 122.158 1047.64 122.158C1046.2 122.158 1045.24 120.398 1044.92 119.438C1031.48 94.7984 1015.16 88.7184 1004.12 88.7184C971.799 88.7184 969.879 134.958 969.879 146.318C969.879 171.598 976.119 200.558 1007.48 200.558C1022.84 200.558 1040.44 191.598 1045.24 176.398C1049.08 167.278 1051.96 172.878 1051.96 173.838C1051.96 174.958 1044.12 204.718 1006.68 204.718C955.159 204.718 943.479 163.118 943.479 144.878C943.479 111.118 967.159 84.5584 1001.72 84.5584C1008.44 84.5584 1015.48 85.6784 1021.88 87.5984C1023.16 87.9184 1025.56 88.3984 1026.68 88.3984C1033.88 88.3984 1031.64 79.9184 1034.52 79.9184C1036.12 79.9184 1036.76 82.7984 1037.08 83.7584ZM1129.64 158.158H1093L1091.08 163.278C1089.16 168.878 1084.52 180.398 1084.52 186.158C1084.52 194.478 1090.44 197.678 1097.64 197.678C1099.24 197.678 1100.84 198.158 1100.84 200.078C1100.84 201.838 1099.4 201.838 1098.28 201.838H1058.44C1057.32 201.838 1055.4 201.838 1055.4 199.918C1055.4 197.678 1057.32 197.678 1058.76 197.678C1068.52 197.678 1074.92 193.198 1088.04 159.278L1109.16 102.798C1107.56 100.718 1106.28 99.1184 1103.56 98.6384C1101.64 98.3184 1100.52 97.6784 1100.52 96.8784C1100.52 96.0784 1101.32 95.1184 1103.24 94.6384C1115.72 91.7584 1123.72 78.9584 1125.64 78.9584C1126.76 78.9584 1126.92 80.0784 1129.32 86.7984L1159.72 173.518C1167.56 196.078 1173.32 197.678 1184.2 197.678C1185.64 197.678 1189.48 197.678 1189.48 199.918C1189.48 201.838 1188.68 201.838 1187.24 201.838H1123.08C1121.8 201.838 1119.56 201.838 1119.56 199.918C1119.56 197.678 1123.24 197.678 1125 197.678C1131.08 197.678 1138.92 197.038 1138.92 189.038C1138.92 185.038 1137.32 180.078 1135.88 176.398L1129.64 158.158ZM1128.36 153.998L1112.04 106.478H1111.72L1094.6 153.998H1128.36Z" fill="#FEFBEC"/>
<g clip-path="url(#clip2_1768_1254)">
<path fill-rule="evenodd" clip-rule="evenodd" d="M1410.16 59.2075L1409.69 37.3682L1485.39 76.5898C1485.39 76.5898 1487.66 78.7002 1487.74 80.6011C1488.5 97.8805 1490.09 184.449 1490.09 184.449C1490.09 184.449 1488.01 187.951 1484.92 189.798C1481.67 191.737 1477.4 190.689 1477.4 190.689L1417.21 159.936L1417.21 190.687L1397 202.723L1395.59 142.108C1395.69 140.54 1396.18 139.016 1397 137.651C1398.27 135.681 1400.76 134.085 1400.76 134.085L1454.36 103.778L1455.3 126.508L1429.44 142.553L1466.58 162.61L1467.52 163.056C1467.88 163.024 1468.22 162.865 1468.46 162.61C1468.72 162.203 1468.88 161.746 1468.93 161.273L1467.05 89.9608L1410.16 59.2075Z" fill="#FEFBEC"/>
<path fill-rule="evenodd" clip-rule="evenodd" d="M1450.87 187.768L1470.8 198.337L1397.48 240.457C1397.48 240.457 1394.51 241.36 1392.81 240.485C1377.37 232.526 1296.53 190.599 1296.53 190.599C1296.53 190.599 1294.33 187.581 1294.26 183.993C1294.18 180.226 1296.91 177.388 1296.91 177.388L1355.19 143.227L1327.27 126.895L1326.53 105.481L1381.58 133.791C1382.89 134.665 1385.54 136.933 1386.33 138.32C1387.09 140.019 1387.09 143.227 1387.09 143.227L1388.28 202.112L1367.9 191.63L1366.58 162.188L1328.81 182.106L1327.29 183.238C1327.14 183.565 1327.19 183.845 1327.29 184.182C1327.51 184.609 1328.42 184.847 1328.81 185.126L1394.49 219.286L1450.87 187.768Z" fill="#FEFBEC"/>
<path fill-rule="evenodd" clip-rule="evenodd" d="M1312.94 156.214L1293.23 167.515L1291.2 85.7696C1291.2 85.7696 1292 82.8529 1293.69 81.8345C1309.09 72.5768 1387.36 28.0001 1387.36 28.0001C1387.36 28.0001 1391.59 27.9556 1394.83 29.5726C1398.22 31.2707 1399.4 35.3025 1399.4 35.3025L1401.41 100.077L1429.26 84.3193L1450.59 95.287L1395.94 126.743C1394.45 127.438 1392.82 127.803 1391.16 127.812C1388.73 127.755 1386.03 126.507 1386.03 126.507L1331.55 97.6555L1351.84 85.5222L1379.42 98.7305L1379.17 58.2164L1379.1 57.222C1378.89 56.941 1378.58 56.7448 1378.22 56.6725C1377.72 56.6621 1377.22 56.7586 1376.77 56.955L1312.58 94.1403L1312.94 156.214Z" fill="#FEFBEC"/>
<path fill-rule="evenodd" clip-rule="evenodd" d="M1350.93 84.6378L1330.23 97.0452L1384.14 125.993C1384.14 125.993 1387.89 128.399 1391.37 128.29C1395.1 128.171 1398.59 125.533 1398.59 125.533L1451.54 94.7463L1430.36 83.7188L1401.47 99.3414C1401.47 99.3414 1395.15 101.987 1389.44 101.639C1383.84 101.298 1378.85 97.9629 1378.85 97.9629L1350.93 84.6378Z" fill="#27A5EF"/>
<path fill-rule="evenodd" clip-rule="evenodd" d="M1456.24 126.078L1455.26 102.883L1402.02 132.669C1402.02 132.669 1397.96 134.541 1396.33 137.448C1394.57 140.577 1395.24 144.754 1395.24 144.754L1396.89 203.615L1417.49 191.741L1417.65 160.22C1417.65 160.22 1418.4 153.706 1421.56 149.191C1424.66 144.765 1430.19 142.335 1430.19 142.335L1456.24 126.078Z" fill="#27A5EF"/>
<path fill-rule="evenodd" clip-rule="evenodd" d="M1367.27 192.348L1389 203.163L1388.41 144.441C1388.41 144.441 1388.73 140.163 1386.88 137.364C1384.9 134.353 1380.74 132.809 1380.74 132.809L1326 104.667L1326.55 127.564L1355.34 143.498C1355.34 143.498 1360.93 147.372 1363.48 152.237C1365.98 157.006 1365.44 162.769 1365.44 162.769L1367.27 192.348Z" fill="#27A5EF"/>
</g>
</g>
<defs>
<clipPath id="clip0_1768_1254">
<rect width="1562" height="271" fill="white" transform="translate(-78)"/>
</clipPath>
<clipPath id="clip1_1768_1254">
<rect width="208" height="215" fill="white" transform="translate(-78 28)"/>
</clipPath>
<clipPath id="clip2_1768_1254">
<rect width="208" height="215" fill="white" transform="translate(1282.09 28)"/>
</clipPath>
</defs>
</svg>
